<?xml version="1.0" standalone="no"?>
<!DOCTYPE svg PUBLIC "-//W3C//DTD SVG 20010904//EN"
 "http://www.w3.org/TR/2001/REC-SVG-20010904/DTD/svg10.dtd">
<svg version="1.0" xmlns="http://www.w3.org/2000/svg"
 width="100.000000pt" height="100.000000pt" viewBox="0 0 100.000000 100.000000"
 preserveAspectRatio="xMidYMid meet">
<metadata>
Created by potrace 1.11, written by Peter Selinger 2001-2013
</metadata>
<g transform="translate(0.000000,100.000000) scale(0.100000,-0.100000)"
fill="#000000" stroke="none">
<path d="M440 783 c-43 -14 -62 -31 -85 -77 -14 -27 -25 -64 -25 -82 0 -30 1
-31 38 -29 20 2 40 4 43 4 4 1 10 16 13 34 13 70 73 98 114 54 45 -48 16 -140
-49 -157 l-39 -11 0 -89 0 -90 40 0 39 0 0 66 c-1 36 1 66 3 67 1 1 21 11 43
22 79 40 107 152 55 225 -41 58 -124 85 -190 63z"/>
<path d="M124 693 c12 -148 15 -175 27 -251 11 -65 14 -73 33 -70 20 3 21 8
24 206 l2 202 -46 0 -47 0 7 -87z"/>
<path d="M774 703 c4 -43 9 -107 12 -143 6 -66 28 -178 38 -187 3 -3 12 -3 21
0 11 5 15 21 15 59 1 29 2 112 4 183 1 72 1 138 -2 148 -3 13 -15 17 -50 17
l-45 0 7 -77z"/>
<path d="M145 303 c-17 -17 -13 -62 7 -75 16 -10 60 -1 70 15 10 16 10 39 -1
56 -12 19 -59 22 -76 4z"/>
<path d="M803 308 c-19 -25 -21 -46 -7 -67 17 -23 53 -28 72 -9 16 16 15 65 0
75 -22 13 -55 14 -65 1z"/>
<path d="M456 292 c-19 -22 -16 -62 6 -76 19 -11 74 9 82 30 3 8 0 25 -6 39
-14 31 -57 34 -82 7z"/>
</g>
</svg>
