<?xml version="1.0" standalone="no"?>
<!DOCTYPE svg PUBLIC "-//W3C//DTD SVG 20010904//EN"
 "http://www.w3.org/TR/2001/REC-SVG-20010904/DTD/svg10.dtd">
<svg version="1.0" xmlns="http://www.w3.org/2000/svg"
 width="512.000000pt" height="512.000000pt" viewBox="0 0 512.000000 512.000000"
 preserveAspectRatio="xMidYMid meet">
<metadata>
Created by potrace 1.11, written by Peter Selinger 2001-2013
</metadata>
<g transform="translate(0.000000,512.000000) scale(0.100000,-0.100000)"
fill="#000000" stroke="none">
<path d="M1424 4525 c-39 -16 -66 -99 -70 -211 -7 -210 110 -406 296 -498 85
-42 114 -40 146 9 16 24 16 29 2 58 -9 18 -27 38 -42 45 -14 6 -38 18 -53 25
-44 19 -137 118 -161 171 -42 89 -53 239 -22 297 35 64 -28 133 -96 104z"/>
<path d="M3166 4363 c-174 -40 -325 -175 -387 -349 -30 -81 -37 -249 -11 -277
30 -33 49 -39 86 -23 38 16 45 35 45 127 -1 181 130 341 312 380 88 19 124 78
79 127 -12 12 -24 22 -28 23 -4 0 -14 2 -22 3 -8 2 -42 -3 -74 -11z"/>
<path d="M2480 4047 c-14 -6 -79 -54 -145 -107 -147 -118 -231 -180 -244 -180
-5 0 -11 -3 -13 -7 -7 -16 -92 -60 -328 -171 -297 -139 -456 -342 -446 -574 2
-46 7 -95 11 -110 7 -26 4 -28 -49 -43 -70 -21 -185 -96 -256 -168 -101 -104
-168 -244 -174 -364 -2 -50 -7 -66 -36 -101 -27 -34 -38 -40 -57 -36 -33 9
-64 -15 -116 -88 -108 -151 -181 -343 -190 -495 -20 -364 220 -642 714 -826
101 -38 321 -98 424 -117 33 -5 69 -12 80 -14 42 -8 173 -26 230 -31 33 -3 76
-8 95 -10 137 -17 576 -23 750 -11 171 12 228 17 260 21 19 3 62 8 95 11 33 3
67 8 76 9 9 2 40 6 70 10 66 8 330 59 418 81 36 9 72 17 80 19 55 11 264 81
361 120 242 97 404 208 489 335 135 200 144 437 27 679 -59 122 -161 257 -273
360 -85 78 -111 90 -151 70 -15 -7 -30 -15 -34 -17 -4 -2 -5 6 -3 18 6 32 -30
161 -63 226 -48 95 -123 193 -217 286 -102 101 -135 119 -174 97 l-26 -15 -1
71 c-2 161 -106 257 -329 304 -76 16 -169 23 -500 36 -209 8 -272 25 -313 82
-61 87 -40 259 58 484 35 78 33 123 -5 157 -28 24 -56 27 -95 9z m1495 -1600
c8 -20 13 -37 10 -37 -5 0 -35 67 -35 78 0 11 10 -5 25 -41z"/>
<path d="M3491 3604 c-27 -35 -26 -56 4 -109 90 -153 281 -233 467 -194 58 12
137 53 139 72 1 7 3 22 4 35 1 12 -8 32 -21 45 -27 27 -55 27 -124 2 -84 -31
-194 -15 -267 41 -18 14 -51 50 -73 80 -35 47 -45 54 -75 54 -24 0 -39 -7 -54
-26z"/>
<path d="M630 3498 c-36 -19 -50 -54 -38 -89 13 -38 33 -48 107 -53 33 -3 80
-13 103 -24 83 -37 156 -132 166 -217 8 -74 54 -111 108 -86 39 17 49 52 36
122 -28 151 -145 286 -287 332 -72 24 -165 30 -195 15z"/>
</g>
</svg>
