<?xml version="1.0" standalone="no"?>
<!DOCTYPE svg PUBLIC "-//W3C//DTD SVG 20010904//EN"
 "http://www.w3.org/TR/2001/REC-SVG-20010904/DTD/svg10.dtd">
<svg version="1.0" xmlns="http://www.w3.org/2000/svg"
 width="512.000000pt" height="512.000000pt" viewBox="0 0 512.000000 512.000000"
 preserveAspectRatio="xMidYMid meet">
<metadata>
Created by potrace 1.11, written by Peter Selinger 2001-2013
</metadata>
<g transform="translate(0.000000,512.000000) scale(0.100000,-0.100000)"
fill="#000000" stroke="none">
<path d="M2748 4702 c-64 -23 -141 -94 -170 -155 -18 -40 -23 -67 -23 -135 0
-79 2 -85 27 -107 15 -13 35 -22 45 -20 10 2 24 4 31 4 15 1 45 68 37 82 -14
22 -6 89 15 127 46 81 149 106 228 55 70 -46 90 -117 61 -220 -13 -49 -44 -85
-191 -221 -72 -66 -113 -149 -126 -251 -8 -68 -7 -76 12 -98 51 -58 113 -24
123 67 8 87 37 141 105 201 114 101 161 154 189 214 84 179 32 361 -125 442
-65 33 -171 40 -238 15z"/>
<path d="M2077 4432 c-10 -10 -17 -24 -17 -31 0 -6 21 -110 46 -229 25 -119
48 -226 50 -237 2 -11 6 -29 8 -40 3 -11 11 -49 19 -85 22 -104 43 -128 95
-109 22 8 47 53 38 68 -3 4 -7 21 -10 37 -3 16 -17 84 -31 149 -14 66 -27 131
-30 145 -24 133 -75 334 -86 341 -23 15 -65 10 -82 -9z"/>
<path d="M1401 4217 c-79 -37 -131 -122 -131 -214 0 -135 127 -256 190 -183
29 33 25 60 -15 104 -19 22 -35 44 -36 50 0 6 -2 18 -4 27 -4 24 23 75 49 88
58 31 121 6 152 -61 14 -31 15 -50 8 -105 -4 -38 -8 -104 -9 -148 0 -69 4 -88
30 -138 35 -70 67 -99 104 -92 28 5 61 38 61 62 0 9 -14 40 -31 69 -33 58 -38
104 -21 180 36 157 -27 311 -148 363 -62 27 -140 26 -199 -2z"/>
<path d="M3441 4226 c-77 -28 -151 -124 -151 -196 0 -17 9 -39 20 -50 41 -41
102 -15 120 50 13 48 46 72 97 72 48 0 93 -46 93 -95 0 -71 -55 -120 -175
-156 -101 -29 -158 -69 -205 -142 -51 -80 -46 -128 16 -143 34 -9 66 13 94 63
26 45 68 71 164 99 200 60 293 228 215 389 -47 98 -180 148 -288 109z"/>
<path d="M2260 3560 c-43 -43 -10 -120 51 -120 32 0 69 40 69 74 0 56 -79 87
-120 46z"/>
<path d="M2690 3567 c-34 -17 -55 -63 -44 -95 24 -67 113 -81 147 -23 23 39
21 65 -5 96 -27 31 -64 39 -98 22z"/>
<path d="M3134 3495 c-52 -22 -61 -81 -17 -115 47 -36 112 -9 113 47 0 34 -10
53 -39 67 -22 12 -32 12 -57 1z"/>
<path d="M1818 3473 c-25 -30 -29 -53 -13 -83 18 -34 56 -47 91 -31 66 30 42
131 -31 131 -18 0 -38 -8 -47 -17z"/>
<path d="M2217 2943 c-1 -1 -33 -4 -72 -7 -38 -4 -81 -8 -95 -11 -14 -3 -39
-7 -57 -10 -77 -12 -106 -37 -106 -88 0 -72 4 -88 33 -121 44 -49 119 -60 234
-34 46 10 51 9 68 -12 39 -49 -18 -79 -162 -85 -134 -5 -229 65 -255 188 -3
16 -17 40 -31 54 -32 32 -56 28 -171 -29 -115 -57 -140 -92 -114 -160 5 -14
45 -80 90 -148 45 -69 81 -132 81 -140 0 -21 -20 -40 -42 -40 -20 0 -40 27
-138 180 -36 56 -73 106 -82 111 -73 40 -233 -217 -292 -471 -38 -159 -39
-188 -11 -216 36 -36 62 -31 137 29 38 30 64 33 81 6 17 -27 4 -43 -105 -130
-126 -102 -121 -97 -137 -137 -28 -68 3 -167 76 -239 32 -32 50 -43 73 -43 46
0 76 37 78 97 7 156 80 264 210 313 99 37 155 37 165 0 8 -31 -14 -49 -71 -60
-71 -13 -115 -35 -157 -79 -88 -90 -79 -283 16 -354 57 -41 124 -55 279 -56
136 -2 148 0 174 20 25 20 27 26 22 68 -11 95 -19 122 -41 140 -22 17 -28 17
-155 -3 -130 -20 -133 -20 -146 -1 -8 10 -14 22 -14 25 0 18 29 39 60 44 227
36 247 42 254 79 3 12 7 76 10 141 6 126 19 166 55 166 33 0 43 -24 35 -87
-17 -136 -7 -351 23 -456 32 -116 99 -150 278 -142 122 5 153 13 178 47 20 27
22 103 12 538 -2 74 -6 302 -10 505 -7 376 -10 483 -19 521 -14 65 -58 89
-164 89 -41 0 -74 -1 -75 -2z m-122 -568 c84 -5 124 -11 135 -21 12 -12 15
-49 16 -197 0 -160 5 -238 19 -352 2 -16 7 -61 10 -100 4 -38 9 -79 11 -90 7
-32 6 -113 -1 -124 -10 -17 -53 -13 -64 7 -5 10 -12 49 -16 87 -4 39 -9 81
-11 95 -1 14 -6 54 -9 90 -4 36 -10 92 -14 124 -5 32 -8 133 -9 223 0 91 -2
166 -4 168 -2 2 -53 6 -114 10 l-110 7 -13 -64 c-34 -175 -206 -272 -380 -216
-42 13 -128 62 -158 91 -29 26 -30 63 -3 77 17 9 29 5 69 -25 131 -96 251
-102 336 -17 37 37 57 88 59 153 2 76 15 91 80 85 28 -3 105 -8 171 -11z"/>
<path d="M2742 2940 c-74 -17 -89 -58 -92 -258 -2 -135 -4 -258 -14 -985 -6
-414 -6 -415 61 -438 20 -6 85 -13 143 -15 198 -6 247 30 281 211 14 78 18
310 6 394 -8 60 1 81 38 81 37 0 43 -23 51 -180 8 -165 8 -165 189 -190 91
-13 135 -30 135 -53 0 -24 -18 -39 -46 -40 -25 -1 -158 16 -220 29 -37 7 -64
-25 -78 -93 -29 -141 -5 -158 209 -150 252 9 328 65 329 242 1 86 -18 137 -66
182 -30 28 -101 59 -155 68 -51 8 -74 31 -62 63 10 27 51 29 128 6 150 -44
223 -133 241 -295 8 -71 13 -87 35 -106 33 -29 70 -22 118 25 50 48 77 102 84
166 8 76 -11 102 -142 207 -63 50 -115 97 -115 104 0 54 45 59 104 12 55 -45
81 -51 111 -24 31 28 33 59 10 167 -44 212 -157 446 -247 513 -48 36 -67 21
-164 -133 -49 -77 -95 -142 -102 -145 -21 -8 -52 14 -52 37 0 11 39 82 86 156
126 196 123 215 -40 296 -136 69 -169 62 -199 -42 -34 -117 -110 -174 -234
-175 -96 0 -180 21 -187 45 -12 48 14 62 86 47 68 -15 167 -6 203 17 34 22 55
70 55 123 0 85 -22 98 -200 121 -106 13 -249 18 -288 10z m517 -559 c9 -6 14
-32 16 -78 7 -211 210 -278 396 -132 41 32 61 36 79 14 22 -27 3 -59 -62 -102
-143 -95 -277 -100 -385 -15 -58 46 -99 118 -109 189 -3 29 -9 51 -13 49 -3
-2 -53 -7 -111 -11 -58 -4 -106 -8 -108 -10 -2 -1 -5 -96 -7 -211 -2 -115 -6
-220 -8 -234 -3 -14 -8 -56 -12 -95 -3 -38 -8 -83 -10 -100 -2 -16 -7 -54 -10
-84 -6 -59 -18 -81 -45 -81 -42 0 -46 28 -26 195 2 17 7 62 11 100 4 39 9 90
12 115 3 25 7 135 8 245 1 110 3 205 3 212 2 14 34 21 147 28 49 4 91 7 92 8
6 7 131 5 142 -2z"/>
<path d="M1821 1135 c-159 -45 -271 -193 -271 -359 1 -246 230 -420 467 -356
279 76 366 430 154 629 -87 82 -235 118 -350 86z m163 -139 c66 -20 110 -57
140 -118 98 -196 -112 -406 -307 -306 -211 107 -139 425 99 437 11 1 42 -5 68
-13z"/>
<path d="M1884 848 c-57 -27 -57 -115 0 -142 98 -46 164 92 69 142 -26 14 -41
14 -69 0z"/>
<path d="M3162 1130 c-71 -25 -112 -52 -160 -104 -71 -77 -103 -165 -97 -266
12 -226 207 -383 430 -348 179 28 319 197 309 374 -5 112 -45 196 -125 268
-93 84 -245 116 -357 76z m216 -149 c53 -27 97 -79 115 -138 58 -180 -118
-347 -297 -282 -90 33 -147 110 -149 203 -1 65 6 95 34 138 64 97 193 132 297
79z"/>
<path d="M3245 850 c-77 -30 -61 -150 20 -150 47 0 64 8 79 39 34 67 -30 139
-99 111z"/>
</g>
</svg>
