<svg xmlns="http://www.w3.org/2000/svg" viewBox="0 0 220.998 60"><path fill="#fff" d="m3.6 7.85q-.56 1.38-.56 2.56 0 1.18.48 1.74.48.56 1.56.56.65 0 1.14-.46.15-1.15.25-1.53.24-.92.73-.92.39 0 .74.54.35.54.33.92 0 .63-.5 2.33.98-.74 2.25-2.19.19-.21.31-.21.2 0 .2.46 0 .89-.9 1.91-.89 1.01-2.38 1.62-.11.26-.18.5-.07.24-.18.57-.11.34-.39.74-.28.4-.7.68-.9.61-2.05.61-1.16 0-1.94-.51-.77-.51-.77-1.4 0-.44.42-.72.42-.28 1.09-.48.67-.2 1.51-.36.84-.15 1.68-.35.11-.32.17-.6-.55.42-1.35.42-1.66 0-2.61-.69-1.11-.79-1.11-2.49 0-2.21 1.12-4.2-.34-.39-.55-.82-.21-.42-.21-.65 0-.39.28-.38.19 0 .42.23.24.22.39.38.15.15.31.28.73-.93 1.71-1.5.98-.58 2.16-.58 1.17 0 1.83.44.66.43.66 1.51 0 1.08-.83 1.79-.84.72-2.32.72-1.02 0-2.21-.47zm.46-.95q.77.34 1.86.34.67 0 1.08-.37.41-.36.41-.79 0-.42-.28-.63-.27-.2-.72-.2-1.34 0-2.35 1.65zm-.48 10.31q.96 0 1.67-1.43-.77.19-1.3.31-.53.11-.86.19-.33.09-.48.17-.15.08-.15.24 0 .26.36.38.36.12.76.14zm7.93-2.72q-1.4 0-1.4-2.62 0-1.43.35-2.59.54-1.79 1.23-1.79.41 0 .64.55.2.42.19.82 0 .56-.34 1.98-.32 1.23-.32 1.52 0 .3.14.41.15.11.36.11.2 0 .51-.27.3-.26.61-.58.31-.31.57-.58.26-.26.36-.26.19 0 .19.47 0 .98-.99 1.91-.98.93-2.1.92zm.57-8.13q-.38-.56-.38-1.21 0-.64.21-1.07.2-.43.38-.63.18-.2.42-.2.39 0 .72.58.32.58.32.97 0 .73-.51 1.14-.51.42-1.16.42zm2.44 7.33q-.16-.38-.23-.87-.07-.5-.07-1.4 0-.89.34-2.42h-.63q-.17 0-.17-.14 0-.33.06-.55.07-.22.31-.5h.33q.2 0 .42-.01.67-2.16 1.37-2.16.56.02.79.72.05.19.12.42l-.57 1q.98.03 1.24.03.26 0 .28.05.02.05.02.15 0 .25-.12.63-.12.38-.27.36l-1.4-.07q-.3 1.71-.3 2.83 0 1.12.33 1.12.26 0 .96-.44.7-.44 1.01-.85.31-.4.5-.4.2 0 .2.47 0 .48-.34.97-.33.5-.84.91-.51.42-1.14.68-.62.27-1.08.27-.46 0-.71-.22-.24-.21-.41-.58zm4.94.23q.28-.72.84-1.19.56-.47 1.22-.47.66 0 .66.73 0 .73-.47 1.3-.47.58-.95.56-.84 0-1.3-.93zm5.19-8.18q-.16.13-.33.24-.17.11-.39.11-.21 0-.21-.38 0-.77.71-1.26.69-.5 1.65-.5.97 0 1.42.68.36.55.36 1.49 0 .4-.15 1.05-.8 3.33-.82 4.62.02.61.52.84.2.08.46.08 1.25 0 2.36-1.47-.56-1.96-.56-4.45 0-.92.44-1.5.44-.59 1.43-.59.74 0 1.13.42.38.42.38 1.11 0 1.41-.74 3.49-.25.7-.59 1.38.61 1.63 1.6 1.63 1.12 0 1.96-1.52.62-1.1 1.01-3.01-1.02-.14-1.62-.86-.59-.73-.59-1.56 0-.82.51-1.37.52-.55 1.42-.55.89-.01 1.34.63.45.63.45 1.73v.28q0 .15-.01.33.23-.11.4-.23.17-.12.34-.12.28 0 .28.24 0 .46-.3.81-.3.35-.81.53-.18 1.64-.49 2.58-.57 1.81-1.51 2.74-1.12 1.1-2.76 1.11-1.36 0-2.21-1.81-1.43 1.81-3.25 1.81-1.24 0-1.98-.62-.73-.63-.73-1.97 0-.32.35-1.7.36-1.38.57-2.27.21-.89.21-1.41 0-1.13-.57-1.13-.2 0-.36.11-.16.11-.32.24zm6.78.14q-.36 0-.36 1.13 0 1.14.19 2.29.53-1.39.53-2.69 0-.28-.09-.51-.09-.22-.27-.22zm4.73-.8q-.29 0-.29.46 0 .84.66 1.22.05-.53.05-.71 0-.39-.1-.63-.11-.34-.32-.34zm6.44 8.75q0 .83-1.61.83-.35 0-.41-.36-.06-.36-.06-.89 0-.53.07-1.14.08-.61.21-1.32.23-1.37.67-2.96.45-1.59.88-2.46-.88.06-1.75.32-.87.25-1.23.36-.37.1-.6.1-.24 0-.24-.15 0-.18.28-.54.28-.36.8-.72 1.31-.9 2.92-.91l4.61.04q.38 0 .38.3 0 .08-.12.3-.11.21-.19.47-.18.5-.77.5-.58 0-2.76-.08-.06.61-.22 1.57-.17.96-.37 2.09-.47 2.9-.49 4.65zm5.84-3.99q-.81.11-1.34.11-.19 0-.19-.14 0-.32.45-.67.44-.36 1.43-.63.45-1.59 1.02-2.92-1.4.07-2.29.92-.23.22-.37.35-.14.13-.24.13-.11 0-.21-.17-.09-.17-.09-.45.01-1.08 1.45-1.75 1.44-.67 3.56-.66l4.2.07q.38 0 .38.3 0 .08-.12.3-.11.21-.19.47-.18.5-.79.5h-.44l-1.87-.01h-1.07q-.12.79-.68 2.6l2.57.04q.22 0 .22.27 0 .08-.07.29-.07.21-.13.44-.11.46-.47.46l-2.13-.1h-.18q-.09 0-.2.01-.73 2.68-.73 4.23 0 .83-1.61.83-.35 0-.41-.36-.06-.36-.06-.94 0-1.26.6-3.52z" transform="matrix(3.99201579 0 0 3.99201579 -3.353295 -12.97405)"/></svg>