<?xml version="1.0" standalone="no"?>
<!DOCTYPE svg PUBLIC "-//W3C//DTD SVG 20010904//EN"
 "http://www.w3.org/TR/2001/REC-SVG-20010904/DTD/svg10.dtd">
<svg version="1.0" xmlns="http://www.w3.org/2000/svg"
 width="512.000000pt" height="512.000000pt" viewBox="0 0 512.000000 512.000000"
 preserveAspectRatio="xMidYMid meet">
<metadata>
Created by potrace 1.11, written by Peter Selinger 2001-2013
</metadata>
<g transform="translate(0.000000,512.000000) scale(0.100000,-0.100000)"
fill="#000000" stroke="none">
<path d="M1625 3461 c-143 -66 -169 -260 -49 -359 71 -59 151 -67 235 -24 70
35 108 89 116 164 7 68 -8 117 -50 165 -61 70 -169 93 -252 54z"/>
<path d="M3312 3463 c-143 -70 -167 -256 -48 -360 128 -114 332 -30 353 144 6
55 -19 127 -60 172 -53 57 -174 79 -245 44z"/>
<path d="M2351 1989 c-191 -20 -403 -81 -591 -170 -169 -80 -430 -265 -466
-330 -27 -48 -11 -104 36 -132 55 -33 74 -25 189 71 142 120 344 230 531 291
529 171 1128 58 1541 -291 115 -96 134 -104 189 -71 47 28 63 84 36 132 -19
35 -126 123 -251 206 -351 235 -781 339 -1214 294z"/>
</g>
</svg>
