<svg xmlns="http://www.w3.org/2000/svg" viewBox="0 0 100 125" x="0px" y="0px"><path d="M45.1 57.1v-8.6c0-.4.1-.6.5-.6 2-.1 3.9-.6 5.7-1.4 1-.4 1.8-1.1 2.3-2 1.1-1.7 1.9-3.5 2.4-5.4 1.2-3.7-.5-7.7-3.9-9.5-1-.7-2.2-1-3.3-.9-.6.1-1.3.3-1.8.6-1.8.9-3.1 2.4-3.7 4.3-.4 1.5-1 2.9-1.4 4.3-.1.7-.2 1.3-.1 2 0 .4-.1.5-.5.5-2.7 0-5.4 0-8.1.1-.5 0-.5-.2-.5-.6-.1-3.5.8-7 2.4-10.1.7-1.5 1.6-2.9 2.5-4.3 1.2-1.6 2.9-2.8 4.8-3.3 2.1-.6 4.2-1 6.3-1.3 3-.3 6 .3 8.6 1.9 2.8 1.7 5.1 3.9 6.9 6.7.9 1.5 1.5 3.3 1.6 5.1.4 3.9-.5 7.9-2.5 11.2-1.6 2.3-3.7 4.1-6.3 5.2-1.2.6-2.4 1.1-3.7 1.5-.4.1-.6.3-.6.8v12c0 .5-.2.7-.7.7-2.1 0-4.2.1-6.3.2-.4 0-.4-.2-.4-.5V57l-.2.1M86.5 31.1c0 3.1.1 5.9-.2 8.6-.2 3.2-.2 6.5-.1 9.7.2 4.2-.2 8.4-.2 12.6 0 .3-.1.4-.4.4-1.1.1-2.1.2-3.2.4-.5.1-.6-.1-.7-.5-.5-2.5-1.1-5.1-1.6-7.6-.6-2.2-.9-4.5-1.1-6.8 0-.7-.1-1.5-.1-2.2 0-3-.2-6.1-.8-9.1-.8-4.7-1.2-9.4-1.1-14.1 0-.2 0-.4.3-.4 2.1-.2 4.2-.2 6.3-.1.7.1 1.3.2 2 .2.5 0 .7.2.7.7.1 2.9.3 5.7.2 8.2M21.2 30.9c0 3.4.1 6.3-.2 9.1-.2 3-.3 6-.1 8.9.3 4.3-.1 8.6-.1 13 0 .5-.1.6-.6.7-1.1.1-2.1.2-3.2.4-.3 0-.4 0-.5-.3-.9-4.1-1.7-8.2-2.6-12.3-.2-1.5-.3-3.1-.3-4.7s0-3.2-.1-4.8c-.1-1.5-.5-3-.7-4.5-.6-3.3-.9-6.5-.9-9.8 0-1.3-.1-2.6-.1-3.9 0-.4.1-.5.5-.5 1.3 0 2.7-.2 4-.2 1.5 0 2.9.1 4.3.4.4.1.4.2.4.6.1 2.7.2 5.6.2 7.9M54.5 74.5c0 1.7-1.2 2.7-2.8 3.4-1.2.5-2.5.9-3.9 1.1-1.4.4-2.8-.5-3.1-1.8v-.1c-.5-1.4-.7-2.9-.5-4.3.1-1 .7-1.9 1.5-2.4 1.4-.9 2.9-1.4 4.5-1.7 1.6-.2 2.6.3 3.4 1.9.6 1.2.9 2.5.9 3.9M13.4 73.1c0-.7.1-1.3.2-1.9.2-1.4 1.3-2.5 2.7-2.7.8-.1 1.5-.2 2.3-.3 2.1 0 3.9 1.4 4.3 3.5.3 1.3.1 2.7-.5 3.9-.6 1.2-1.7 2-3 2.1-1 .2-2 .1-3-.1-1.6-.3-2.8-1.6-2.9-3.3-.1-.4-.1-.8-.1-1.2M88.3 73c0 .4-.1.8-.1 1.2-.6 2.6-2.4 3.9-5.2 3.6-.6 0-1.3-.2-1.9-.4-1.2-.5-2.1-1.5-2.3-2.8-.2-1.2-.2-2.4.1-3.6.2-1.3 1.3-2.3 2.6-2.5.8-.2 1.6-.3 2.4-.3 2.2 0 4 1.6 4.3 3.8 0 .3 0 .6.1 1"/><text x="0" y="115" fill="#000000" font-size="5px" font-weight="bold" font-family="'Helvetica Neue', Helvetica, Arial-Unicode, Arial, Sans-serif">Created by Free Fair &amp; Healthy</text><text x="0" y="120" fill="#000000" font-size="5px" font-weight="bold" font-family="'Helvetica Neue', Helvetica, Arial-Unicode, Arial, Sans-serif">from the Noun Project</text></svg>