<svg xmlns="http://www.w3.org/2000/svg" xmlns:xlink="http://www.w3.org/1999/xlink" version="1.1" x="0px" y="0px" viewBox="0 0 100 125" enable-background="new 0 0 100 100" xml:space="preserve" class="fill-current"><g><path d="M46.506,37.094v12.832c-2.567,1.286-4.334,3.934-4.334,7c0,4.326,3.508,7.833,7.834,7.833s7.834-3.507,7.834-7.833   c0-3.066-1.767-5.715-4.334-7.001V37.094c0-6.709,5.458-12.167,12.167-12.167v-7c-6.473,0-12.194,3.233-15.667,8.161   c-3.473-4.928-9.194-8.161-15.667-8.161v7C41.048,24.927,46.506,30.385,46.506,37.094z" class="fill-current"/><path d="M67.797,39.136l-4.949,4.949c7.08,7.081,7.08,18.602,0,25.682c-7.082,7.079-18.603,7.08-25.683,0   c-3.43-3.43-5.318-7.99-5.318-12.841s1.889-9.41,5.318-12.84l-4.949-4.95c-4.753,4.752-7.369,11.069-7.369,17.79   s2.616,13.039,7.368,17.79c4.905,4.905,11.349,7.357,17.791,7.357c6.443,0,12.887-2.452,17.791-7.357   C77.606,64.907,77.606,48.945,67.797,39.136z" class="fill-current"/></g></svg>
